<?xml version="1.0" encoding="UTF-8" standalone="no"?> <svg xmlns="http://www.w3.org/2000/svg" viewBox="0 0 64 64"><defs><style>.cls-1{fill:#f57e17;}.cls-1,.cls-6,.cls-8{stroke:#f57e17;}.cls-1,.cls-2,.cls-4,.cls-5,.cls-6,.cls-8,.cls-9{stroke-linecap:round;stroke-linejoin:round;stroke-width:2px;}.cls-2{fill:#3db51d;stroke:#3db51d;}.cls-3{fill:#eaca81;}.cls-4{fill:#ff4931;stroke:#ff4931;}.cls-5{fill:#ffe082;stroke:#ffe082;}.cls-6{fill:none;}.cls-7{fill:#4f4f4f;}.cls-8{fill:#fff35f;}.cls-9{fill:#cfd8dc;stroke:#fff;}</style></defs><title>inspector</title><g id="inspector"><path class="cls-1" d="M49.26,45H15.74C10.91,45,7,48.35,7,52.49V63H57V51.63C57,48,53.54,45,49.26,45Z"/><path class="cls-2" d="M48,45H41.54a10,10,0,1,1-19.08,0H16V63H48Z"/><rect class="cls-3" x="27" y="42" width="10" height="12" rx="5" ry="5"/><path class="cls-4" d="M10,19c0-3.31,9.85-6,22-6s22,2.69,22,6"/><circle class="cls-3" cx="14" cy="27" r="4"/><circle class="cls-3" cx="50" cy="27" r="4"/><path class="cls-5" d="M38,6.11C37.85,9.37,31.65,12,24,12a30.79,30.79,0,0,1-5.38-.46A16.91,16.91,0,0,0,15,22v9a17,17,0,0,0,34,0V22A17,17,0,0,0,38,6.11Z"/><polyline class="cls-6" points="27 37 29 38 35 38 37 37"/><path class="cls-7" d="M25,23c-3.31,0-6,.45-6,1v4.81C19,30.57,20.71,32,22.82,32h4.35C29.29,32,31,30.57,31,28.81V24C31,23.45,28.31,23,25,23Z"/><path class="cls-7" d="M39,23c-3.31,0-6,.45-6,1v4.81C33,30.57,34.71,32,36.82,32h4.35C43.29,32,45,30.57,45,28.81V24C45,23.45,42.31,23,39,23Z"/><path class="cls-1" d="M32,1h0A17,17,0,0,1,49,18v1a0,0,0,0,1,0,0H15a0,0,0,0,1,0,0V18A17,17,0,0,1,32,1Z"/><path class="cls-4" d="M54,19c0,3.31-9.85,6-22,6s-22-2.69-22-6"/><rect class="cls-4" x="29" y="1" width="6" height="18"/><line class="cls-8" x1="15" y1="19" x2="49" y2="19"/><circle class="cls-9" cx="32" cy="15" r="6"/></g></svg>